<?xml version="1.0" encoding="iso-8859-1"?>
<!-- Uploaded to: SVG Repo, www.svgrepo.com, Generator: SVG Repo Mixer Tools -->
<!DOCTYPE svg PUBLIC "-//W3C//DTD SVG 1.1//EN" "http://www.w3.org/Graphics/SVG/1.1/DTD/svg11.dtd">
<svg fill="#000000" version="1.1" id="Capa_1" xmlns="http://www.w3.org/2000/svg" xmlns:xlink="http://www.w3.org/1999/xlink" 
	 width="800px" height="800px" viewBox="0 0 571.312 571.312"
	 xml:space="preserve">
<g>
	<path d="M202.418,129.134c-0.871,0-1.706-0.479-2.13-1.3L162.713,54.32c-0.597-1.174-0.133-2.613,1.043-3.215
		c1.181-0.598,2.618-0.133,3.215,1.043l37.572,73.511c0.598,1.176,0.136,2.613-1.041,3.215
		C203.153,129.047,202.787,129.134,202.418,129.134z M138.239,185.461c0.761-1.081,0.501-2.572-0.577-3.333l-67.458-47.6
		c-1.081-0.756-2.567-0.497-3.33,0.579c-0.761,1.081-0.502,2.572,0.576,3.33l67.458,47.602c0.415,0.294,0.898,0.434,1.377,0.434
		C137.035,186.474,137.772,186.119,138.239,185.461z M106.79,265.917c0.17-1.304-0.751-2.511-2.061-2.681l-81.852-10.753
		c-1.309-0.191-2.508,0.749-2.681,2.061c-0.172,1.304,0.749,2.508,2.058,2.679l81.854,10.753c0.105,0.017,0.21,0.021,0.311,0.021
		C105.604,267.996,106.631,267.121,106.79,265.917z M37.502,383.38l77.459-28.554c1.237-0.462,1.872-1.834,1.414-3.07
		c-0.459-1.237-1.836-1.876-3.068-1.414l-77.46,28.549c-1.236,0.462-1.874,1.834-1.414,3.07c0.357,0.966,1.272,1.563,2.24,1.563
		C36.952,383.524,37.229,383.478,37.502,383.38z M109.695,487.974l55.284-61.315c0.884-0.98,0.803-2.488-0.177-3.38
		c-0.98-0.887-2.49-0.803-3.379,0.178l-55.284,61.316c-0.884,0.979-0.803,2.492,0.178,3.379c0.457,0.41,1.026,0.611,1.601,0.611
		C108.57,488.763,109.222,488.496,109.695,487.974z M222.247,546.984l20.416-79.998c0.324-1.284-0.443-2.581-1.725-2.908
		c-1.291-0.331-2.581,0.443-2.905,1.727l-20.416,79.999c-0.327,1.278,0.443,2.581,1.725,2.902c0.201,0.057,0.396,0.08,0.592,0.08
		C221.005,548.781,221.974,548.062,222.247,546.984z M347.571,549.724c1.283-0.303,2.077-1.591,1.773-2.875l-19.148-80.306
		c-0.299-1.289-1.605-2.068-2.875-1.773c-1.283,0.303-2.077,1.591-1.773,2.874l19.145,80.307c0.266,1.102,1.241,1.839,2.324,1.839
		C347.198,549.794,347.39,549.771,347.571,549.724z M461.546,490.979c0.994-0.868,1.098-2.38,0.225-3.374l-54.302-62.176
		c-0.863-0.993-2.376-1.096-3.37-0.224c-0.993,0.868-1.096,2.38-0.229,3.374l54.302,62.18c0.472,0.542,1.134,0.817,1.797,0.817
		C460.533,491.567,461.094,491.376,461.546,490.979z M535.123,385.961c0.476-1.228-0.136-2.613-1.368-3.09l-77.002-29.785
		c-1.218-0.48-2.613,0.14-3.09,1.367c-0.471,1.228,0.136,2.613,1.368,3.085l77.002,29.79c0.28,0.107,0.574,0.163,0.858,0.163
		C533.849,387.491,534.754,386.913,535.123,385.961z M467.269,270.873l82.014-9.449c1.308-0.149,2.25-1.334,2.096-2.648
		c-0.149-1.309-1.325-2.25-2.646-2.098l-82.014,9.449c-1.312,0.147-2.25,1.333-2.101,2.646c0.14,1.221,1.176,2.119,2.371,2.119
		C467.081,270.887,467.17,270.882,467.269,270.873z M437.786,188.457l68.2-46.526c1.092-0.744,1.372-2.23,0.625-3.32
		c-0.737-1.095-2.23-1.368-3.318-0.625l-68.204,46.524c-1.088,0.747-1.372,2.23-0.626,3.323c0.462,0.677,1.214,1.041,1.979,1.041
		C436.899,188.872,437.376,188.739,437.786,188.457z M373.348,129.215l38.737-72.907c0.62-1.165,0.177-2.609-0.99-3.229
		c-1.166-0.625-2.608-0.177-3.234,0.989l-38.731,72.904c-0.621,1.167-0.178,2.609,0.989,3.232c0.359,0.191,0.742,0.282,1.12,0.282
		C372.093,130.487,372.919,130.027,373.348,129.215z M288.738,106.748l0.374-82.554c0.004-1.318-1.062-2.394-2.38-2.399
		c-0.005,0-0.009,0-0.009,0c-1.314,0-2.385,1.06-2.39,2.38l-0.374,82.554c-0.004,1.318,1.062,2.394,2.38,2.399
		c0.005,0,0.009,0,0.009,0C287.663,109.128,288.733,108.066,288.738,106.748z M249.98,128.392c1.286-0.299,2.084-1.584,1.783-2.87
		L223.208,3.578c-0.301-1.286-1.582-2.075-2.873-1.783c-1.286,0.301-2.083,1.587-1.782,2.873l28.555,121.948
		c0.257,1.104,1.237,1.844,2.322,1.844C249.612,128.455,249.799,128.436,249.98,128.392z M182.7,162.737
		c0.994-0.866,1.104-2.375,0.238-3.375l-82.007-94.66c-0.871-0.994-2.376-1.104-3.375-0.24c-0.999,0.866-1.104,2.375-0.241,3.375
		l82.01,94.66c0.474,0.544,1.136,0.822,1.806,0.822C181.687,163.318,182.245,163.126,182.7,162.737z M139.114,224.442
		c0.483-1.228-0.124-2.613-1.356-3.097l-116.63-45.644c-1.228-0.478-2.613,0.124-3.097,1.356c-0.483,1.229,0.124,2.616,1.358,3.097
		l116.628,45.646c0.287,0.109,0.583,0.161,0.87,0.161C137.842,225.961,138.741,225.385,139.114,224.442z M2.658,315.828
		l124.471-13.847c1.309-0.149,2.254-1.325,2.112-2.637c-0.147-1.312-1.333-2.25-2.637-2.114L2.126,311.077
		c-1.309,0.149-2.254,1.33-2.112,2.638c0.138,1.223,1.171,2.128,2.375,2.128C2.48,315.843,2.567,315.838,2.658,315.828z
		 M50.96,443.716l103.745-70.165c1.094-0.742,1.381-2.226,0.639-3.318c-0.74-1.092-2.222-1.386-3.316-0.639L48.279,439.758
		c-1.094,0.742-1.381,2.222-0.642,3.318c0.465,0.682,1.216,1.051,1.984,1.051C50.08,444.127,50.549,443.991,50.96,443.716z
		 M153.208,534.458l59.197-110.377c0.628-1.157,0.187-2.608-0.973-3.233c-1.167-0.621-2.616-0.188-3.236,0.975l-59.2,110.372
		c-0.625,1.162-0.184,2.608,0.976,3.239c0.359,0.195,0.747,0.284,1.129,0.284C151.951,535.713,152.777,535.261,153.208,534.458z
		 M285.938,567.207l1.055-125.236c0.012-1.316-1.05-2.399-2.369-2.408c-0.004,0-0.016,0-0.021,0c-1.31,0-2.378,1.055-2.39,2.37
		l-1.055,125.237c-0.01,1.32,1.05,2.398,2.371,2.408c0.005,0,0.014,0,0.019,0C284.857,569.573,285.924,568.519,285.938,567.207z
		 M417.639,537.674c1.171-0.603,1.633-2.045,1.026-3.216l-57.326-111.361c-0.602-1.167-2.039-1.638-3.215-1.026
		c-1.177,0.602-1.639,2.049-1.027,3.215l57.321,111.361c0.425,0.821,1.261,1.293,2.128,1.293
		C416.91,537.939,417.284,537.855,417.639,537.674z M521.499,447.053c0.762-1.083,0.5-2.571-0.583-3.327l-102.545-71.906
		c-1.083-0.761-2.571-0.499-3.323,0.583c-0.761,1.078-0.499,2.572,0.579,3.328l102.545,71.906c0.42,0.293,0.9,0.434,1.372,0.434
		C520.296,448.07,521.033,447.716,521.499,447.053z M571.293,318.508c0.168-1.307-0.761-2.502-2.067-2.675l-124.225-15.942
		c-1.315-0.141-2.506,0.761-2.674,2.067c-0.168,1.312,0.756,2.506,2.067,2.679l124.224,15.943c0.099,0.009,0.205,0.019,0.304,0.019
		C570.107,320.599,571.134,319.712,571.293,318.508z M436.782,228.318l117.382-43.682c1.237-0.462,1.872-1.834,1.405-3.073
		c-0.462-1.236-1.834-1.867-3.071-1.404L435.112,223.84c-1.237,0.464-1.867,1.836-1.405,3.073c0.359,0.961,1.274,1.559,2.245,1.559
		C436.223,228.468,436.503,228.419,436.782,228.318z M394.536,164.298l83.583-93.274c0.882-0.985,0.798-2.49-0.187-3.375
		c-0.976-0.877-2.483-0.798-3.375,0.187l-83.582,93.274c-0.883,0.984-0.799,2.49,0.187,3.374c0.452,0.406,1.022,0.607,1.592,0.607
		C393.407,165.091,394.061,164.823,394.536,164.298z M327.358,127.274L357.956,5.83c0.317-1.281-0.453-2.581-1.736-2.903
		c-1.288-0.329-2.581,0.45-2.898,1.736l-30.598,121.447c-0.321,1.279,0.453,2.581,1.736,2.9c0.196,0.047,0.393,0.07,0.588,0.07
		C326.112,129.08,327.088,128.359,327.358,127.274z M191,140.708c1.094-0.735,1.386-2.222,0.651-3.316l-18.979-28.215
		c-0.735-1.097-2.222-1.391-3.316-0.651c-1.095,0.735-1.386,2.221-0.651,3.316l18.979,28.217c0.464,0.688,1.213,1.055,1.988,1.055
		C190.127,141.114,190.59,140.986,191,140.708z M134.676,202.741c0.625-1.16,0.196-2.609-0.966-3.239l-29.927-16.16
		c-1.165-0.63-2.614-0.191-3.239,0.966c-0.628,1.162-0.196,2.609,0.964,3.242l29.928,16.157c0.364,0.196,0.751,0.287,1.132,0.287
		C133.418,203.994,134.239,203.539,134.676,202.741z M113.662,283.856c0.014-1.318-1.043-2.403-2.361-2.417l-33.986-0.388
		c-0.009,0-0.019,0-0.028,0c-1.305,0-2.376,1.05-2.39,2.361c-0.014,1.319,1.043,2.404,2.361,2.418l33.983,0.387
		c0.009,0,0.019,0,0.03,0C112.577,286.218,113.646,285.166,113.662,283.856z M101.493,384.122l30.271-15.472
		c1.176-0.602,1.64-2.039,1.043-3.216c-0.598-1.171-2.042-1.628-3.216-1.04l-30.273,15.467c-1.174,0.602-1.638,2.044-1.041,3.215
		c0.42,0.831,1.262,1.303,2.13,1.303C100.771,384.383,101.145,384.299,101.493,384.122z M168.687,459.85l19.595-27.783
		c0.761-1.078,0.501-2.566-0.579-3.327c-1.081-0.761-2.572-0.504-3.33,0.579l-19.595,27.778c-0.761,1.082-0.502,2.571,0.579,3.332
		c0.416,0.294,0.898,0.434,1.377,0.434C167.483,460.862,168.218,460.508,168.687,459.85z M263.375,495.633l4.427-33.715
		c0.17-1.303-0.751-2.507-2.061-2.68c-1.337-0.2-2.509,0.752-2.681,2.059l-4.424,33.715c-0.173,1.302,0.749,2.506,2.058,2.679
		c0.105,0.015,0.21,0.019,0.31,0.019C262.194,497.709,263.224,496.832,263.375,495.633z M362.427,486.321
		c1.241-0.457,1.876-1.829,1.414-3.065l-11.752-31.909c-0.457-1.237-1.829-1.876-3.066-1.414c-1.236,0.462-1.871,1.829-1.414,3.07
		l11.752,31.904c0.359,0.966,1.27,1.563,2.24,1.563C361.881,486.471,362.156,486.42,362.427,486.321z M447.209,428.936
		c0.882-0.98,0.803-2.492-0.178-3.379l-25.258-22.775c-0.984-0.883-2.487-0.808-3.379,0.177c-0.882,0.98-0.803,2.492,0.177,3.379
		l25.259,22.775c0.457,0.411,1.026,0.611,1.601,0.611C446.084,429.724,446.737,429.453,447.209,428.936z M495.551,338.697
		c0.321-1.283-0.443-2.581-1.728-2.907l-32.939-8.415c-1.274-0.327-2.581,0.443-2.908,1.722c-0.326,1.284,0.443,2.581,1.728,2.908
		l32.939,8.415c0.201,0.056,0.397,0.079,0.593,0.079C494.305,340.494,495.271,339.775,495.551,338.697z M461.509,247.083
		l33.08-7.875c1.283-0.308,2.077-1.592,1.773-2.877c-0.303-1.286-1.605-2.07-2.879-1.773l-33.08,7.875
		c-1.284,0.306-2.077,1.592-1.774,2.877c0.267,1.099,1.247,1.834,2.324,1.834C461.141,247.148,461.327,247.125,461.509,247.083z
		 M423.617,171.061l25.617-22.362c0.994-0.868,1.097-2.38,0.229-3.372c-0.872-1.001-2.385-1.099-3.374-0.231l-25.617,22.362
		c-0.994,0.871-1.098,2.38-0.229,3.375c0.472,0.539,1.135,0.816,1.802,0.816C422.6,171.648,423.159,171.452,423.617,171.061z
		 M354.717,121.391l12.261-31.708c0.48-1.23-0.136-2.614-1.368-3.087c-1.218-0.479-2.613,0.138-3.085,1.365l-12.265,31.71
		c-0.476,1.227,0.136,2.613,1.367,3.087c0.28,0.11,0.574,0.164,0.859,0.164C353.442,122.922,354.349,122.343,354.717,121.391z
		 M268.509,112.129c1.309-0.152,2.25-1.333,2.098-2.646l-3.89-33.771c-0.149-1.309-1.305-2.264-2.648-2.098
		c-1.31,0.149-2.25,1.334-2.098,2.648l3.89,33.769c0.14,1.218,1.176,2.117,2.371,2.117
		C268.322,112.143,268.413,112.139,268.509,112.129z M225.688,122.385c1.232-0.467,1.848-1.848,1.381-3.087l-12.106-31.776
		c-0.474-1.232-1.855-1.86-3.087-1.381c-1.232,0.469-1.851,1.851-1.381,3.087l12.106,31.775c0.362,0.952,1.27,1.541,2.231,1.541
		C225.119,122.544,225.406,122.49,225.688,122.385z M156.784,170.066c0.873-0.989,0.777-2.499-0.21-3.375l-25.494-22.509
		c-0.987-0.87-2.495-0.779-3.372,0.21c-0.875,0.99-0.78,2.5,0.21,3.375l25.491,22.509c0.453,0.401,1.018,0.598,1.582,0.598
		C155.649,170.874,156.31,170.601,156.784,170.066z M117.968,244.324c0.31-1.286-0.474-2.576-1.755-2.887l-33.018-8.062
		c-1.286-0.315-2.576,0.469-2.887,1.753c-0.312,1.288,0.472,2.576,1.753,2.889l33.02,8.06c0.191,0.049,0.383,0.068,0.567,0.068
		C116.719,246.145,117.699,245.414,117.968,244.324z M83.429,339.234l32.98-8.224c1.281-0.322,2.061-1.615,1.741-2.898
		c-0.322-1.278-1.626-2.054-2.896-1.736L82.271,334.6c-1.281,0.322-2.058,1.615-1.738,2.898c0.272,1.082,1.246,1.811,2.317,1.811
		C83.037,339.309,83.233,339.285,83.429,339.234z M131.75,428.202l25.373-22.626c0.985-0.877,1.071-2.39,0.191-3.369
		c-0.88-0.985-2.39-1.069-3.375-0.191l-25.373,22.621c-0.984,0.882-1.071,2.39-0.191,3.374c0.474,0.527,1.129,0.799,1.783,0.799
		C130.728,428.81,131.292,428.608,131.75,428.202z M215.885,484.482l11.934-31.839c0.464-1.231-0.164-2.608-1.4-3.08
		c-1.232-0.457-2.609,0.159-3.078,1.4l-11.934,31.839c-0.462,1.232,0.163,2.608,1.4,3.08c0.278,0.098,0.56,0.154,0.838,0.154
		C214.613,486.027,215.528,485.444,215.885,484.482z M314.473,497.826c1.312-0.164,2.24-1.358,2.077-2.67l-4.229-33.733
		c-0.164-1.312-1.358-2.24-2.67-2.072c-1.307,0.159-2.235,1.354-2.072,2.665l4.229,33.733c0.154,1.209,1.181,2.096,2.371,2.096
		C314.271,497.84,314.374,497.835,314.473,497.826z M410.036,461.101c1.087-0.751,1.349-2.245,0.592-3.323l-19.447-27.895
		c-0.756-1.083-2.245-1.349-3.328-0.593c-1.082,0.751-1.349,2.245-0.592,3.323l19.452,27.895c0.462,0.668,1.204,1.022,1.965,1.022
		C409.145,461.53,409.62,461.395,410.036,461.101z M477.54,384.141c0.607-1.172,0.149-2.613-1.021-3.221l-30.178-15.653
		c-1.172-0.611-2.613-0.153-3.221,1.022c-0.611,1.172-0.148,2.613,1.022,3.221l30.178,15.653c0.35,0.182,0.728,0.266,1.097,0.266
		C476.28,385.429,477.115,384.962,477.54,384.141z M465.112,287.203l34.004-0.191c1.316-0.005,2.385-1.085,2.376-2.403
		c-0.005-1.316-1.078-2.376-2.39-2.376c-0.005,0-0.01,0-0.015,0l-34.004,0.191c-1.321,0.005-2.385,1.083-2.376,2.404
		c0.005,1.313,1.074,2.375,2.39,2.375C465.103,287.203,465.107,287.203,465.112,287.203z M445.394,204.577l30.019-15.982
		c1.167-0.621,1.605-2.07,0.989-3.229c-0.616-1.162-2.067-1.601-3.234-0.99l-30.014,15.98c-1.167,0.623-1.605,2.07-0.989,3.232
		c0.429,0.807,1.255,1.265,2.109,1.265C444.651,204.857,445.039,204.769,445.394,204.577z M389.52,140.612l19.121-28.11
		c0.741-1.094,0.462-2.581-0.631-3.32c-1.087-0.742-2.58-0.455-3.317,0.63l-19.126,28.11c-0.737,1.094-0.458,2.581,0.635,3.323
		c0.41,0.28,0.877,0.411,1.339,0.411C388.306,141.66,389.058,141.292,389.52,140.612z M310.291,109.98l3.851-33.775
		c0.148-1.31-0.794-2.495-2.105-2.642c-1.381-0.173-2.492,0.793-2.642,2.103l-3.846,33.773c-0.149,1.309,0.794,2.495,2.101,2.644
		c0.098,0.009,0.187,0.014,0.275,0.014C309.124,112.101,310.155,111.198,310.291,109.98z M408.397,285.653
		c0-67.682-55.058-122.742-122.742-122.742c-67.682,0-122.742,55.06-122.742,122.742c0,67.68,55.06,122.742,122.742,122.742
		C353.34,408.396,408.397,353.333,408.397,285.653z M403.618,285.653c0,65.043-52.92,117.963-117.962,117.963
		c-65.043,0-117.963-52.92-117.963-117.963c0-65.042,52.92-117.962,117.963-117.962
		C350.698,167.691,403.618,220.611,403.618,285.653z M340.683,285.653c0-51.958-24.684-94.224-55.027-94.224
		s-55.027,42.265-55.027,94.224c0,51.956,24.684,94.222,55.027,94.222S340.683,337.609,340.683,285.653z M335.903,285.653
		c0,49.319-22.541,89.442-50.248,89.442c-27.704,0-50.248-40.123-50.248-89.442s22.544-89.444,50.248-89.444
		C313.362,196.209,335.903,236.334,335.903,285.653z M379.882,285.653c0-28.674-42.266-51.996-94.226-51.996
		c-51.958,0-94.224,23.321-94.224,51.996c0,28.673,42.265,51.994,94.224,51.994C337.616,337.647,379.882,314.326,379.882,285.653z
		 M375.103,285.653c0,26.035-40.127,47.215-89.447,47.215c-49.319,0-89.445-21.18-89.445-47.215
		c0-26.037,40.125-47.217,89.445-47.217C334.976,238.437,375.103,259.616,375.103,285.653z M324.567,324.565
		c36.739-36.737,49.173-84.08,27.718-105.537c-6.954-6.954-16.886-10.629-28.73-10.629c-23.718,0-53.148,14.692-76.806,38.342
		c-36.737,36.742-49.172,84.083-27.718,105.537c6.949,6.949,16.883,10.618,28.726,10.618
		C271.491,362.9,300.919,348.209,324.567,324.565z M348.906,222.408c19.593,19.595,7.159,63.906-27.718,98.779
		c-22.785,22.784-50.922,36.935-73.432,36.935c-10.552,0-19.317-3.188-25.347-9.217c-19.59-19.593-7.155-63.899,27.718-98.779
		c22.792-22.787,50.927-36.942,73.427-36.942C334.103,213.179,342.872,216.371,348.906,222.408z M352.285,352.283
		c20.274-20.278,6.88-66.658-29.86-103.395c-24.324-24.332-53.946-39.441-77.291-39.441c-10.807,0-19.833,3.311-26.103,9.582
		c-20.274,20.276-6.877,66.657,29.86,103.394c24.325,24.33,53.947,39.441,77.292,39.441
		C336.991,361.864,346.018,358.551,352.285,352.283z M319.046,252.268c34.877,34.873,48.271,78.221,29.86,96.637
		c-5.428,5.428-13.072,8.182-22.724,8.182c-22.127,0-50.449-14.576-73.913-38.042c-34.875-34.872-48.269-78.223-29.86-96.636
		c5.428-5.43,13.075-8.182,22.724-8.182C267.26,214.226,295.585,228.802,319.046,252.268z"/>
</g>
</svg>